<svg id="Group_6" data-name="Group 6" xmlns="http://www.w3.org/2000/svg" xmlns:xlink="http://www.w3.org/1999/xlink" width="239.344" height="175.076" viewBox="0 0 239.344 175.076">
  <defs>
    <clipPath id="clip-path">
      <rect id="Rectangle_1" data-name="Rectangle 1" width="239.344" height="175.076" fill="#13313c"/>
    </clipPath>
  </defs>
  <g id="Group_1" data-name="Group 1" transform="translate(0 0)" clip-path="url(#clip-path)">
    <path id="Path_1" data-name="Path 1" d="M48.249,52.071c-4.24,11.34-10.508,23.558-20.37,24C.965,77.475-13.413,40.03,17.28,9c-.092,0,6.728,0,20.461.089a14.481,14.481,0,0,1,2.95,5.626c1.014,3.6,1.107,8.616-2.581,14.592l-12.535.089c-.554,0,4.885-11.6,2.119-13.977a20.988,20.988,0,0,1,4.24-3.869L30.183,12.6a11.419,11.419,0,0,0-2.949,2.549c.183,0-25.07,28.128-6.453,49.05,6.73,6.416,15.947-2.726,21.477-12.132Z" transform="translate(0 7.967)" fill="#13313c"/>
    <path id="Path_2" data-name="Path 2" d="M76.57,47.473a17.7,17.7,0,0,1,2.95.087C74.359,70.5,69.287,85.623,58.319,83.953,47.628,81.14,51.038,58.46,52.7,37.1c.277-.615,1.384-2.023,5.069-4.747A14.943,14.943,0,0,0,55.74,33.5c-1.384.88-3.6,2.2-7.65,9.494A70.739,70.739,0,0,0,40.9,64.261a82.225,82.225,0,0,0-1.474,15.823H27.719c-3.41-9.492-2.858-29.534-1.474-47.116C26.982,22.684,28.272,11.7,29.838.093h11.89L39.61,17.5c-1.2,10.022-2.489,22.591-3.226,32.7a104.72,104.72,0,0,1,8.11-16.7q2.073-3.294,3.872-5.8h17.7c-.922,7.647-2.306,14.5-2.49,20.481-.46,10.284-1.1,20.393.37,20.657,1.844.439,5.345-4.044,7.1-10.723.828-3.165,1.751-6.593,2.4-10.55,1.2-.087,2.211-.087,3.133-.087" transform="translate(22.279 0.083)" fill="#13313c"/>
    <path id="Path_3" data-name="Path 3" d="M91.348,34.331a118.381,118.381,0,0,1-4.332,17.933c-3.226,8.88-7.833,18.108-15.024,18.374-20.555,1.054-32.813-29.889-9.127-56-.09.089,3.872.089,8.02.089,2.4,0,5.162,0,8.2-.089a52.734,52.734,0,0,1-.46,14.856c-1.751,8-6.084,16.877-17.237,20.657a21.382,21.382,0,0,0,3.872,6.331c7.835,8,17.512-3.6,20-22.154ZM60.1,41.54c4.148-2.374,15.024-9.669,11.521-18.547a18.485,18.485,0,0,1,4.24-3.869l-1.567.967a11.952,11.952,0,0,0-2.95,2.285c.277,0-10.231,8.176-11.244,19.164" transform="translate(44.186 12.961)" fill="#13313c"/>
    <path id="Path_4" data-name="Path 4" d="M109.175,34.63a107.984,107.984,0,0,1-4.425,17.933c-2.949,8.966-8.018,18.2-14.931,18.46C68.9,72.077,57.467,40.7,80.88,14.5c0,.089,3.963.089,7.926.089h8.02a14.129,14.129,0,0,1,2.211,4.745,15.578,15.578,0,0,1-1.751,12.307l-9.769.087c-.554,0,3.778-7.119,2.027-8.789a21.212,21.212,0,0,1,3.5-2.988l-1.474.879a10.389,10.389,0,0,0-2.766,2.11c-2.489,2.372-19.264,17.493-5.9,33.842,7.835,8,17.512-3.6,20.185-22.152Z" transform="translate(60.092 12.837)" fill="#13313c"/>
    <path id="Path_5" data-name="Path 5" d="M137.384,47.38a20.047,20.047,0,0,1,3.043.087C134.988,70.41,130.2,85.53,119.227,83.86c-8.572-2.11-6.546-21.624-6.546-32.964v-.175c-1.75-8.088-6.728,2.549-7.466,4.395a166.284,166.284,0,0,0-5.162,24.173c.092.264.092.528.185.616H88.718c-3.228-9.581-2.673-29.448-1.476-47.116C88.074,22.5,89.271,11.515,90.93,0h11.89l-1.936,14.68c-1.012,8.7-2.3,19.514-3.041,29.448a85.846,85.846,0,0,1,6.176-12.746,25.61,25.61,0,0,1,2.581-3.955h13.917a36.9,36.9,0,0,0-7.927,10.107,6.714,6.714,0,0,0-.92,1.584l-1.384,3.163c-.09.089-.09.089,0,.177v-.177a18.263,18.263,0,0,1,3.043-5.009c4.608-1.67,6.544.79,7.466,3.341a17.207,17.207,0,0,1,.552,5.626h-.092c-.737,10.812-.275,22.327,3.226,22.327,3.228,0,5.9-5.275,7.375-10.548a70.081,70.081,0,0,0,2.489-10.55c1.1-.087,2.119-.087,3.041-.087" transform="translate(76.4 0)" fill="#13313c"/>
    <path id="Path_6" data-name="Path 6" d="M15.334,65.464a8.448,8.448,0,0,1,1.474.045C14.23,76.971,11.65,84.525,6.217,83.692c-4.376-1.1-3.361-12.429-3.361-17.175A95.561,95.561,0,0,1,3.868,55.581H9.856c-.507,3.821-.877,7.2-1.152,10.235C8.2,71,8.014,76.049,8.749,76.049c1.659,0,2.9-2.636,3.731-5.271a34.512,34.512,0,0,0,1.29-5.269c.6-.045,1.1-.045,1.565-.045M9.9,53.3H3.868l.737-5.271h5.94Z" transform="translate(2.438 42.516)" fill="#13313c"/>
    <path id="Path_7" data-name="Path 7" d="M34.254,62.05a8.843,8.843,0,0,1,1.474.043c-2.579,11.464-5.205,19.018-10.593,18.183-5.388-1.229-3.5-12.825-2.762-23.409.045-.307.6-1.186,2.3-2.811a5.693,5.693,0,0,0-.967.835,16.127,16.127,0,0,0-3.823,5.137A37.563,37.563,0,0,0,16.43,70.57a49,49,0,0,0-.737,7.731H9.983c-1.75-4.7-1.842-11.332-1.612-16.69a85.734,85.734,0,0,1,.967-9.53H15.28c-.185,1.184-.324,2.415-.462,3.688-.322,2.242-.6,5.1-.737,7.907a56.679,56.679,0,0,1,4.146-8.521,25.216,25.216,0,0,1,1.934-2.986h6.815c-.415,3.821-.69,7.247-.828,10.233-.23,5.139,0,10.233,1.657,10.233S30.66,70,31.49,67.365a41.639,41.639,0,0,0,1.2-5.271c.6-.043,1.1-.043,1.565-.043" transform="translate(7.329 46.105)" fill="#13313c"/>
    <path id="Path_8" data-name="Path 8" d="M66.461,82.854a107.983,107.983,0,0,1-4.425,17.933c-2.949,8.966-8.018,18.2-14.931,18.46-20.923,1.054-32.353-30.328-8.94-56.522,0,.087,3.963.087,7.926.087h8.02a14.156,14.156,0,0,1,2.211,4.747,15.579,15.579,0,0,1-1.751,12.307l-9.769.087c-.554,0,3.778-7.119,2.027-8.789a21.212,21.212,0,0,1,3.5-2.988l-1.474.879a10.351,10.351,0,0,0-2.766,2.11c-2.489,2.372-19.264,17.491-5.9,33.842,7.835,8,17.512-3.6,20.185-22.152Z" transform="translate(22.279 55.528)" fill="#13313c"/>
    <path id="Path_9" data-name="Path 9" d="M94.969,95.7a17.7,17.7,0,0,1,2.95.087c-5.162,22.944-10.233,38.063-21.2,36.393-10.691-2.813-7.281-25.492-5.622-46.852.277-.615,1.384-2.023,5.069-4.747a14.941,14.941,0,0,0-2.027,1.142c-1.384.88-3.6,2.2-7.65,9.494a70.739,70.739,0,0,0-7.19,21.271,82.225,82.225,0,0,0-1.474,15.823H46.118c-3.41-9.492-2.858-29.534-1.474-47.116.737-10.284,2.027-21.271,3.593-32.875h11.89l-2.119,17.4c-1.2,10.022-2.489,22.591-3.226,32.7a104.72,104.72,0,0,1,8.11-16.7q2.073-3.294,3.872-5.8h17.7c-.922,7.647-2.306,14.5-2.49,20.481-.46,10.284-1.1,20.393.37,20.657,1.844.439,5.345-4.044,7.1-10.723.828-3.165,1.751-6.593,2.4-10.55,1.2-.087,2.211-.087,3.133-.087" transform="translate(38.567 42.773)" fill="#13313c"/>
    <path id="Path_10" data-name="Path 10" d="M94.1,89.65a17.686,17.686,0,0,1,2.95.087c-5.162,22.944-10.324,38.063-21.2,36.393-8.757-2.2-6.728-24.876-6.728-34.37a191.127,191.127,0,0,1,2.027-21.888H83.128c-1.014,7.647-1.751,14.415-2.3,20.479-1.014,10.375-1.382,20.483.092,20.483,3.318,0,5.807-5.275,7.466-10.55a69.374,69.374,0,0,0,2.581-10.548c1.2-.087,2.211-.087,3.133-.087M83.22,65.3H71.145l1.474-10.548H84.512Z" transform="translate(61.007 48.47)" fill="#13313c"/>
    <path id="Path_11" data-name="Path 11" d="M121.119,82.854a107.984,107.984,0,0,1-4.425,17.933c-2.949,8.966-8.018,18.2-14.931,18.46C80.841,120.3,69.411,88.919,92.822,62.725c0,.087,3.965.087,7.927.087h8.02a14.229,14.229,0,0,1,2.211,4.747,15.578,15.578,0,0,1-1.751,12.307l-9.769.087c-.554,0,3.778-7.119,2.027-8.789a21.212,21.212,0,0,1,3.5-2.988l-1.474.879a10.351,10.351,0,0,0-2.766,2.11c-2.489,2.372-19.264,17.491-5.9,33.842,7.835,8,17.514-3.6,20.185-22.152Z" transform="translate(70.665 55.528)" fill="#13313c"/>
    <path id="Path_12" data-name="Path 12" d="M149.329,95.6a20.031,20.031,0,0,1,3.041.087c-5.437,22.944-10.229,38.063-21.2,36.393-8.572-2.11-6.546-21.624-6.546-32.964v-.175c-1.751-8.088-6.728,2.549-7.466,4.395A166.287,166.287,0,0,0,112,127.512c.092.264.092.528.185.616H100.663c-3.226-9.581-2.673-29.448-1.476-47.116.829-10.286,2.029-21.273,3.688-32.788h11.89L112.829,62.9c-1.014,8.7-2.3,19.514-3.041,29.448a86.038,86.038,0,0,1,6.176-12.746,25.472,25.472,0,0,1,2.581-3.955h13.917a36.9,36.9,0,0,0-7.927,10.107,6.782,6.782,0,0,0-.922,1.584L122.23,90.5c-.092.089-.092.089,0,.177V90.5a18.264,18.264,0,0,1,3.043-5.009c4.608-1.67,6.544.79,7.466,3.341a17.207,17.207,0,0,1,.552,5.626H133.2c-.737,10.812-.275,22.327,3.226,22.327,3.228,0,5.9-5.275,7.375-10.548a70.082,70.082,0,0,0,2.489-10.55c1.1-.087,2.119-.087,3.041-.087" transform="translate(86.974 42.691)" fill="#13313c"/>
  </g>
</svg>
