<svg id="Group_3591" data-name="Group 3591" xmlns="http://www.w3.org/2000/svg" xmlns:xlink="http://www.w3.org/1999/xlink" width="22" height="16.063" viewBox="0 0 22 16.063">
  <defs>
    <clipPath id="clip-path">
      <rect id="Rectangle_4528" data-name="Rectangle 4528" width="22" height="16.063" fill="#cb0037"/>
    </clipPath>
  </defs>
  <g id="Group_3493" data-name="Group 3493" clip-path="url(#clip-path)">
    <path id="Path_4394" data-name="Path 4394" d="M22,1.619a1.456,1.456,0,0,1-.476,1.08Q15.079,9.146,8.629,15.588a1.461,1.461,0,0,1-2.143.016Q3.462,12.612.469,9.589A1.512,1.512,0,0,1,.486,7.384a1.5,1.5,0,0,1,2.2.03q2.276,2.255,4.529,4.534c.247.25.371.291.646.014Q13.538,6.255,19.239.575a1.523,1.523,0,0,1,2.175-.21A1.567,1.567,0,0,1,22,1.619" transform="translate(0 0)" fill="#cb0037"/>
  </g>
</svg>
