<svg xmlns="http://www.w3.org/2000/svg" width="22.311" height="22.121" viewBox="0 0 22.311 22.121">
  <path id="Path_4398" data-name="Path 4398" d="M11,4H6.8a7.453,7.453,0,0,0-3.162.327A3,3,0,0,0,2.327,5.638,7.453,7.453,0,0,0,2,8.8v8.4a7.454,7.454,0,0,0,.327,3.162,3,3,0,0,0,1.311,1.311A7.453,7.453,0,0,0,6.8,22h8.4a7.453,7.453,0,0,0,3.162-.327,3,3,0,0,0,1.311-1.311A7.453,7.453,0,0,0,20,17.2V13M8,16H9.675a4.277,4.277,0,0,0,.964-.055,2,2,0,0,0,.578-.239,4.282,4.282,0,0,0,.721-.643L21.5,5.5a2.121,2.121,0,0,0-3-3L8.937,12.063a4.281,4.281,0,0,0-.643.721,2,2,0,0,0-.239.578A4.28,4.28,0,0,0,8,14.325Z" transform="translate(-1 -0.879)" fill="none" stroke="#f7b085" stroke-linecap="round" stroke-linejoin="round" stroke-width="2"/>
</svg>
