<svg xmlns="http://www.w3.org/2000/svg" xmlns:xlink="http://www.w3.org/1999/xlink" width="21.629" height="21.647" viewBox="0 0 21.629 21.647">
  <defs>
    <clipPath id="clip-path">
      <rect id="Rectangle_4372" data-name="Rectangle 4372" width="21.629" height="21.647" fill="#13313c"/>
    </clipPath>
  </defs>
  <g id="Group_3297" data-name="Group 3297" transform="translate(0 0)">
    <g id="Group_3296" data-name="Group 3296" transform="translate(0 0)" clip-path="url(#clip-path)">
      <path id="Path_4329" data-name="Path 4329" d="M10.842,21.64c-2.57,0-5.14.019-7.709-.005C.932,21.613.022,20.7.014,18.483q-.028-7.64,0-15.28C.021.92.935.031,3.255.022,6.984.006,10.713.038,14.442,0a2.313,2.313,0,0,1,1.852.764q2.253,2.343,4.6,4.6a2.311,2.311,0,0,1,.738,1.864c-.033,3.732,0,7.464-.02,11.2-.01,2.306-.907,3.2-3.208,3.216-2.52.018-5.039,0-7.559,0M10.8,19.4c2.42,0,4.842-.052,7.259.024,1.088.034,1.357-.349,1.338-1.382q-.088-4.841,0-9.686c.018-1.009-.329-1.287-1.3-1.273-1.139.016-2.617.525-3.337-.238s-.222-2.214-.209-3.361c.01-.878-.2-1.255-1.171-1.24q-4.99.078-9.982,0c-.969-.015-1.171.363-1.166,1.24.032,4.894.042,9.788-.006,14.682-.01,1.027.361,1.273,1.31,1.252,2.419-.054,4.839-.018,7.259-.018" transform="translate(0 0)" fill="#13313c"/>
      <path id="Path_4330" data-name="Path 4330" d="M9.166,8.1c.618.133,1.064.491,1.014,1.122a1.034,1.034,0,0,1-2.066-.05A1.085,1.085,0,0,1,9.166,8.1" transform="translate(-3.181 -3.174)" fill="#13313c"/>
      <path id="Path_4331" data-name="Path 4331" d="M10.21,17.108a1.085,1.085,0,0,1-1.044,1.068,1.035,1.035,0,0,1-.1-2.066c.628-.071,1,.373,1.149,1" transform="translate(-3.18 -6.311)" fill="#13313c"/>
      <path id="Path_4332" data-name="Path 4332" d="M9.182,26.171a1.084,1.084,0,0,1-1.067-1.045,1.034,1.034,0,0,1,2.064-.1c.071.629-.373,1-1,1.149" transform="translate(-3.18 -9.436)" fill="#13313c"/>
    </g>
  </g>
</svg>
