<svg xmlns="http://www.w3.org/2000/svg" xmlns:xlink="http://www.w3.org/1999/xlink" width="21.629" height="21.681" viewBox="0 0 21.629 21.681">
  <defs>
    <clipPath id="clip-path">
      <rect id="Rectangle_4373" data-name="Rectangle 4373" width="21.629" height="21.681" fill="#13313c"/>
    </clipPath>
  </defs>
  <g id="Group_3299" data-name="Group 3299" transform="translate(0 0)">
    <g id="Group_3298" data-name="Group 3298" transform="translate(0 0)" clip-path="url(#clip-path)">
      <path id="Path_4333" data-name="Path 4333" d="M10.869,21.681C4.924,21.41.107,17.415,0,10.891A10.473,10.473,0,0,1,10.7,0,10.479,10.479,0,0,1,21.629,10.787c.034,6.076-4.373,10.52-10.761,10.893m8.819-10.931a8.7,8.7,0,0,0-8.893-8.808,8.691,8.691,0,0,0-8.85,8.852,8.692,8.692,0,0,0,8.962,8.876,8.7,8.7,0,0,0,8.781-8.92" transform="translate(0 0)" fill="#13313c"/>
      <path id="Path_4334" data-name="Path 4334" d="M15.978,15.583a1.932,1.932,0,0,1,.666-1.454c.513-.518,1.052-1.014,1.528-1.565a1.669,1.669,0,0,0,.117-2.448,2.228,2.228,0,0,0-2.764-.1,4.846,4.846,0,0,0-.625.717c-.482.585-.948.09-1.337-.092-.488-.228-.142-.637.022-.929,1.172-2.08,4.926-2.349,6.392-.467.874,1.121.763,2.529-.322,3.874-.761.944-1.806,1.672-2.044,3-.111.618-.723.418-1.15.4-.525-.023-.49-.436-.482-.939" transform="translate(-5.961 -3.575)" fill="#13313c"/>
      <path id="Path_4335" data-name="Path 4335" d="M19.642,28.035a1.053,1.053,0,0,1-1.1,1.206,1.2,1.2,0,1,1-.1-2.4,1.07,1.07,0,0,1,1.2,1.2" transform="translate(-7.741 -12.017)" fill="#13313c"/>
    </g>
  </g>
</svg>
