<svg xmlns="http://www.w3.org/2000/svg" xmlns:xlink="http://www.w3.org/1999/xlink" width="19.439" height="19.433" viewBox="0 0 19.439 19.433">
  <defs>
    <clipPath id="clip-path">
      <rect id="Rectangle_4370" data-name="Rectangle 4370" width="19.439" height="19.433" fill="#13313c"/>
    </clipPath>
  </defs>
  <g id="Group_3292" data-name="Group 3292" transform="translate(0 0)">
    <g id="Group_3291" data-name="Group 3291" transform="translate(0 0)" clip-path="url(#clip-path)">
      <path id="Path_4327" data-name="Path 4327" d="M19.433,9.825c0,2.263.016,4.526,0,6.788-.019,1.977-.838,2.8-2.823,2.807q-6.858.026-13.716,0C.825,19.415.017,18.6.012,16.531q-.021-6.856,0-13.712C.021.842.849.02,2.835.013q6.858-.026,13.717,0C18.615.018,19.416.83,19.43,2.9c.016,2.308,0,4.616,0,6.923m-9.742-7.8c-2.174,0-4.35.034-6.523-.016C2.3,1.984,1.976,2.233,2,3.14c.06,1.945.018,3.894.018,5.841,0,2.99,0,3.014,2.942,2.978a2.321,2.321,0,0,1,2.258,1,3.063,3.063,0,0,0,4.839.145,2.746,2.746,0,0,1,2.747-1.14c.54.035,1.09-.034,1.63.014.789.071,1-.276.992-1.022-.033-2.626-.042-5.253.005-7.878.015-.84-.259-1.094-1.087-1.076-2.218.048-4.439.016-6.658.016M9.657,17.412H15.08c2.485,0,2.729-.292,2.334-2.77-.044-.269-.03-.631-.38-.6-1.25.1-2.563-.5-3.724.576a5.1,5.1,0,0,1-7.2.012c-.235-.206-.48-.542-.735-.557a7.2,7.2,0,0,0-3.067.074c-.686.294-.178,1.486-.282,2.27-.1.759.221,1.025.991,1.011,2.214-.04,4.428-.014,6.643-.013" transform="translate(0 0)" fill="#13313c"/>
    </g>
  </g>
</svg>
