<svg id="Light-M" xmlns="http://www.w3.org/2000/svg" width="20.907" height="14.976" viewBox="0 0 20.907 14.976">
  <path id="Path_4320" data-name="Path 4320" d="M8.991-56.792V-59.07A2.516,2.516,0,0,1,9.4-60.484a2.788,2.788,0,0,1,1.092-.967,15.789,15.789,0,0,1,2.937-1.1,12.789,12.789,0,0,1,3.246-.387,12.789,12.789,0,0,1,3.247.387,15.8,15.8,0,0,1,2.937,1.1,2.788,2.788,0,0,1,1.092.967,2.516,2.516,0,0,1,.409,1.414v2.278Zm17.419,0v-2.4a3.988,3.988,0,0,0-.494-1.923,4.653,4.653,0,0,0-1.4-1.569,10.773,10.773,0,0,1,1.957.476,13.123,13.123,0,0,1,1.768.762,3.65,3.65,0,0,1,1.227,1A2.045,2.045,0,0,1,29.9-59.2v2.4Zm-9.734-7.8a3.454,3.454,0,0,1-2.533-1.053,3.454,3.454,0,0,1-1.053-2.533,3.454,3.454,0,0,1,1.053-2.533,3.454,3.454,0,0,1,2.533-1.053,3.454,3.454,0,0,1,2.533,1.053,3.454,3.454,0,0,1,1.053,2.533,3.454,3.454,0,0,1-1.053,2.533A3.454,3.454,0,0,1,16.676-64.6Zm8.847-3.586a3.453,3.453,0,0,1-1.054,2.533A3.453,3.453,0,0,1,21.937-64.6a3.15,3.15,0,0,1-.441-.039,3.841,3.841,0,0,1-.441-.087,5.434,5.434,0,0,0,.932-1.617,5.32,5.32,0,0,0,.325-1.845,5.166,5.166,0,0,0-.332-1.837,5.925,5.925,0,0,0-.925-1.622,1.926,1.926,0,0,1,.441-.1,4.149,4.149,0,0,1,.441-.024,3.453,3.453,0,0,1,2.533,1.053A3.454,3.454,0,0,1,25.523-68.182Zm-15,9.852h12.3v-.741a1.035,1.035,0,0,0-.16-.571,1.336,1.336,0,0,0-.509-.438,12.078,12.078,0,0,0-2.6-.988,11.781,11.781,0,0,0-2.873-.336,11.78,11.78,0,0,0-2.873.336,12.078,12.078,0,0,0-2.6.988,1.336,1.336,0,0,0-.509.438,1.035,1.035,0,0,0-.16.571Zm6.148-7.8a1.973,1.973,0,0,0,1.447-.6,1.973,1.973,0,0,0,.6-1.447,1.974,1.974,0,0,0-.6-1.447,1.974,1.974,0,0,0-1.447-.6,1.973,1.973,0,0,0-1.447.6,1.974,1.974,0,0,0-.6,1.447,1.973,1.973,0,0,0,.6,1.447A1.973,1.973,0,0,0,16.676-66.132Z" transform="translate(-8.991 71.768)" fill="#13313c"/>
</svg>
