<svg id="Group_3559" data-name="Group 3559" xmlns="http://www.w3.org/2000/svg" xmlns:xlink="http://www.w3.org/1999/xlink" width="11.391" height="10.146" viewBox="0 0 11.391 10.146">
  <defs>
    <clipPath id="clip-path">
      <rect id="Rectangle_4501" data-name="Rectangle 4501" width="11.391" height="10.146" fill="#13313c"/>
    </clipPath>
  </defs>
  <g id="Group_3417" data-name="Group 3417" clip-path="url(#clip-path)">
    <path id="Path_4387" data-name="Path 4387" d="M11.39,3.435a3.886,3.886,0,0,1-.671,2.147,8.811,8.811,0,0,1-1.41,1.625C8.3,8.153,7.227,9.027,6.185,9.935a.667.667,0,0,1-.97.005c-1.059-.918-2.145-1.8-3.166-2.765A8.708,8.708,0,0,1,.677,5.59,3.848,3.848,0,0,1,.025,3,3.382,3.382,0,0,1,1.128.783,2.976,2.976,0,0,1,2.7.047a2.883,2.883,0,0,1,1.82.29A3.276,3.276,0,0,1,5.63,1.3c.055.074.078.07.132,0A3.12,3.12,0,0,1,7.2.189,2.944,2.944,0,0,1,9.8.446,3.244,3.244,0,0,1,11.34,2.8a3.34,3.34,0,0,1,.05.635" transform="translate(0 0)" fill="#13313c"/>
  </g>
</svg>
