<svg id="Group_4" data-name="Group 4" xmlns="http://www.w3.org/2000/svg" xmlns:xlink="http://www.w3.org/1999/xlink" width="49.403" height="57.057" viewBox="0 0 49.403 57.057">
  <defs>
    <clipPath id="clip-path">
      <rect id="Rectangle_2" data-name="Rectangle 2" width="49.403" height="57.057" fill="none"/>
    </clipPath>
  </defs>
  <g id="Group_3" data-name="Group 3" transform="translate(0 0)" clip-path="url(#clip-path)">
    <path id="Path_13" data-name="Path 13" d="M4.682,34.43a.7.7,0,0,1-.749-.761,67.2,67.2,0,0,1,1.447-10.5C7.065,16.831,9.6,10.935,14.139,6.082c7.494-8.015,15.2-8.1,22.9-.3a24.891,24.891,0,0,1,4.072,5.376A2.34,2.34,0,0,0,43.533,12.5c1.631-.061,3.267-.037,5.182-.025a.691.691,0,0,1,.558,1.094C48.107,15.187,47.094,16.627,46,18a3.01,3.01,0,0,0-.553,3.083c1.729,5.8,2.6,11.736,1.577,17.759-1.477,8.7-6.428,14.524-14.974,16.994a29.357,29.357,0,0,1-18.2-.471A20.718,20.718,0,0,1,0,35.874c-.014-1.105.309-1.517,1.4-1.412.614.06,1.231.066,1.85.075a.69.69,0,0,1,.678.645c.025.38.049.76.079,1.14.662,8.578,5.822,14.467,14.224,16.2a27.884,27.884,0,0,0,8.327.387c9.776-.938,16.028-6.755,16.722-16.276.723-9.923-1.733-19.117-8.1-26.97C29.058,2.126,22.349,2.18,16.229,9.68c-5.06,6.2-7.413,13.439-8.075,21.307-.278,3.3-.243,3.3-3.464,3.442H4.682" transform="translate(0 0)" fill="#f69e70"/>
    <path id="Path_14" data-name="Path 14" d="M49.187,20.659a1.611,1.611,0,1,1-.1-3.22,1.611,1.611,0,0,1,.1,3.22" transform="translate(-18.595 -6.824)" fill="#f69e70"/>
  </g>
</svg>
