<svg xmlns="http://www.w3.org/2000/svg" width="16.767" height="16.767" viewBox="0 0 16.767 16.767">
  <g id="Light-M" transform="translate(0 0)">
    <path id="Path_4296" data-name="Path 4296" d="M19.283-60.963a1.721,1.721,0,0,1-1.265-.518,1.721,1.721,0,0,1-.518-1.265v-13.2a1.721,1.721,0,0,1,.518-1.265,1.721,1.721,0,0,1,1.265-.518h6.61v1.479h-6.61a.29.29,0,0,0-.209.095.29.29,0,0,0-.095.209v13.2a.29.29,0,0,0,.095.209.29.29,0,0,0,.209.095h6.61v1.479Zm10.773-4.173-1.024-1.07,2.4-2.4H23.019v-1.479h8.414l-2.4-2.4,1.024-1.07,4.211,4.211Z" transform="translate(-17.5 77.73)" fill="#063341"/>
  </g>
</svg>
