<svg xmlns="http://www.w3.org/2000/svg" width="11.908" height="11.908" viewBox="0 0 11.908 11.908">
  <path id="close_FILL0_wght400_GRAD0_opsz24" d="M222.954-735.778l-4.437,4.437a.859.859,0,0,1-.634.249.859.859,0,0,1-.634-.249.859.859,0,0,1-.249-.634.859.859,0,0,1,.249-.634l4.437-4.437-4.437-4.437a.859.859,0,0,1-.249-.634.859.859,0,0,1,.249-.634.859.859,0,0,1,.634-.249.859.859,0,0,1,.634.249l4.437,4.437,4.437-4.437a.859.859,0,0,1,.634-.249.859.859,0,0,1,.634.249.859.859,0,0,1,.249.634.859.859,0,0,1-.249.634l-4.437,4.437,4.437,4.437a.859.859,0,0,1,.249.634.859.859,0,0,1-.249.634.859.859,0,0,1-.634.249.859.859,0,0,1-.634-.249Z" transform="translate(-217 743)" fill="#fff"/>
</svg>
