<svg xmlns="http://www.w3.org/2000/svg" xmlns:xlink="http://www.w3.org/1999/xlink" width="20.162" height="18.117" viewBox="0 0 20.162 18.117">
  <defs>
    <clipPath id="clip-path">
      <rect id="Rectangle_3439" data-name="Rectangle 3439" width="20.162" height="18.117" fill="#F9D577"/>
    </clipPath>
  </defs>
  <g id="Group_2572" data-name="Group 2572" transform="translate(0 0)">
    <g id="Group_2571" data-name="Group 2571" transform="translate(0 0)" clip-path="url(#clip-path)">
      <path id="Path_3740" data-name="Path 3740" d="M10.028,18.112c-2.165,0-4.329.013-6.493,0-1.772-.014-2.563-.765-2.616-2.6C.859,13.427.9,11.345.893,9.264c0-.455.1-.971-.182-1.34C-.356,6.549-.028,5.145.439,3.663,1.587.01,1.559,0,5.337,0c3.7,0,7.408-.006,11.112,0,1.583,0,2.141.41,2.652,1.929.319.946.582,1.91.884,2.862a2.913,2.913,0,0,1-.377,2.734,2.838,2.838,0,0,0-.433,1.781c.006,2,.016,4,0,5.993-.02,2.062-.753,2.8-2.776,2.806-2.122.011-4.245,0-6.367,0m.015-2.122c1.91,0,3.821-.019,5.73.009.795.012,1.132-.3,1.118-1.1-.026-1.453,0-2.907-.006-4.36a2.2,2.2,0,0,0-3.027-1.82,3.141,3.141,0,0,1-3.093-.012,1.108,1.108,0,0,0-1.267-.1,3.226,3.226,0,0,1-3.421.028,2.283,2.283,0,0,0-2.888,1.8c-.012,1.412.048,2.827-.019,4.235-.052,1.064.39,1.367,1.392,1.334,1.826-.058,3.655-.016,5.482-.019m7.806-10.4a12.681,12.681,0,0,0-.9-3.02c-.218-.527-.732-.461-1.189-.42-.428.037-.551.325-.494.7.161,1.063.289,2.134.521,3.182a1,1,0,0,0,1.219.8c.572-.1.845-.476.842-1.246M11.19,4.239h.032a15.5,15.5,0,0,0,.011,1.62,1.029,1.029,0,0,0,1.084,1,1,1,0,0,0,1.029-1.038,11.2,11.2,0,0,0-.391-3.082c-.115-.569-.587-.625-1.079-.6-.553.031-.682.39-.686.852,0,.416,0,.832,0,1.248M4.81,3.072c.028-.454.026-.847-.487-.912s-1.053-.109-1.26.508c-.3.907-.6,1.822-.809,2.753A1.068,1.068,0,0,0,3.14,6.829c.7.121,1.084-.343,1.208-.985.181-.939.317-1.887.462-2.771M8.908,4.4H8.874c0-.5.008-1,0-1.494-.009-.421-.178-.729-.648-.757-.42-.024-.888-.063-1.026.464a9.779,9.779,0,0,0-.455,3.309.993.993,0,0,0,1,.935.983.983,0,0,0,1.088-.965c.06-.493.05-.994.072-1.491" transform="translate(0 0)" fill="#F9D577"/>
    </g>
  </g>
</svg>
